<svg id="Layer_1" data-name="Layer 1" xmlns="http://www.w3.org/2000/svg" viewBox="0 0 1366 768"><defs><style>.cls-1{fill:#fff;}</style></defs><title>saveimg</title><rect class="cls-1" x="0.5" y="0.5" width="1365" height="767" rx="11.5" ry="11.5"/><path d="M1354,1a11,11,0,0,1,11,11V756a11,11,0,0,1-11,11H12A11,11,0,0,1,1,756V12A11,11,0,0,1,12,1H1354m0-1H12A12,12,0,0,0,0,12V756a12,12,0,0,0,12,12H1354a12,12,0,0,0,12-12V12a12,12,0,0,0-12-12Z"/><g id="Page-1"><g id="Dribbble-Dark-Preview"><g id="icons"><path id="save_item-_1411_" data-name="save_item-[#1411]" d="M549.53,192.4c0-19.38,19.06-35.1,42.55-35.1s42.55,15.72,42.55,35.1-19.06,35.1-42.55,35.1-42.55-15.72-42.55-35.1ZM1022.9,648.7c0,19.38-19.06,35.1-42.55,35.1H937.8V543.4c0-38.79-38.08-70.2-85.1-70.2H512.3c-47,0-85.1,31.41-85.1,70.2V683.8H384.65c-23.49,0-42.55-15.72-42.55-35.1V299.24a16.15,16.15,0,0,1,6.21-12.39l78.89-65.07V262.6c0,38.79,38.08,70.2,85.1,70.2H852.7c47,0,85.1-31.41,85.1-70.2V122.2h42.55c23.49,0,42.55,15.72,42.55,35.1ZM852.7,683.8H512.3V578.5c0-19.38,19.06-35.1,42.55-35.1h255.3c23.49,0,42.55,15.72,42.55,35.1ZM512.3,151.58l35.61-29.38H852.7V227.5c0,19.38-19.06,35.1-42.55,35.1H554.85c-23.49,0-42.55-15.72-42.55-35.1ZM1022.9,52h-493c-11.28,0-22.09,3.69-30.09,10.28l-230.36,190c-8,6.59-12.47,15.51-12.47,24.81V683.8c0,38.79,38.08,70.2,85.1,70.2h680.8c47,0,85.1-31.41,85.1-70.2V122.2c0-38.79-38.08-70.2-85.1-70.2Z"/></g></g></g></svg>